<?xml version="1.0" encoding="UTF-8"?>
<svg width="298px" height="92px" viewBox="0 0 298 92" version="1.1" xmlns="http://www.w3.org/2000/svg" xmlns:xlink="http://www.w3.org/1999/xlink">
    <!-- Generator: Sketch 55.2 (78181) - https://sketchapp.com -->
    <title>EMOHA_logo-01</title>
    <desc>Created with Sketch.</desc>
    <g id="App-Design" stroke="none" stroke-width="1" fill="none" fill-rule="evenodd">
        <g id="EMOHA_logo-01">
            <path d="M0.1807,1.5591 L0.1807,0.9431 L33.6917,0.9431 L33.6917,8.2901 L33.1477,8.2901 C32.4237,5.5641 31.8157,3.9601 31.3207,3.4771 C30.8267,2.9951 29.6127,2.7531 27.6837,2.7531 L10.0967,2.7531 L10.0967,26.6731 L26.4167,26.6731 C28.0337,26.6731 29.0587,26.5231 29.4927,26.2211 C29.9277,25.9201 30.1567,25.4791 30.1807,24.9001 L30.7237,24.9001 L30.7237,29.9311 L30.1807,29.9311 C30.0597,29.2311 29.7757,28.7601 29.3297,28.5191 C28.8847,28.2781 28.0567,28.1571 26.8517,28.1571 L10.0967,28.1571 L10.0967,44.6231 C10.0967,47.1081 10.3257,48.8991 10.7827,49.9961 C11.2407,51.0951 11.9687,51.7821 12.9697,52.0591 C13.9687,52.3371 15.4807,52.4761 17.5047,52.4761 L26.9007,52.4761 C29.8887,52.4761 31.7977,52.3731 32.6277,52.1701 C33.4587,51.9671 34.1627,51.5591 34.7417,50.9471 C35.3197,50.3371 35.7667,49.0011 36.0797,46.9381 L36.6227,46.9381 L36.6227,54.2491 L0.1807,54.2491 L0.1807,53.7051 C1.4117,53.6341 2.3467,53.3981 2.9847,53.0011 C3.6237,52.6031 3.9437,51.5721 3.9437,49.9091 L3.9437,6.8751 C3.9437,4.9221 3.7757,3.5481 3.4377,2.7531 C3.0997,1.9571 2.0137,1.5591 0.1807,1.5591" id="Fill-1" fill="#732826"></path>
            <path d="M96.3394,0.9434 L104.7534,0.9434 L104.7534,1.4864 C101.9094,1.6314 100.4864,3.1164 100.4864,5.9414 C100.4864,6.5444 100.5594,7.3774 100.7044,8.4394 L106.3094,48.8204 C106.6474,50.8324 107.0284,52.1204 107.4504,52.6814 C107.8724,53.2454 108.7464,53.5864 110.0734,53.7054 L110.0734,54.2494 L98.0954,54.2494 L98.0954,53.7054 C99.6924,53.7544 100.4904,52.9874 100.4904,51.4064 C100.4904,51.0464 100.4184,50.3394 100.2734,49.2854 L94.8024,10.1354 L75.6954,54.2494 L75.3324,54.2494 L56.1174,10.2084 L50.7104,49.5784 C50.6144,50.1764 50.5674,50.8584 50.5674,51.6244 C50.5674,53.0124 51.3804,53.7054 53.0054,53.7054 L53.0054,54.2494 L44.8634,54.2494 L44.8634,53.7054 C46.0924,53.7054 46.8824,53.5554 47.2344,53.2544 C47.5834,52.9524 47.8534,52.4694 48.0484,51.8054 C48.2414,51.1424 48.3844,50.4014 48.4814,49.5804 L54.5774,6.5184 C53.5854,4.1294 52.5934,2.6944 51.6024,2.2114 C50.6104,1.7284 49.6534,1.4864 48.7354,1.4864 L48.7354,0.9434 L58.7884,0.9434 L77.5334,44.5444 L96.3394,0.9434 Z" id="Fill-3" fill="#732826"></path>
            <path d="M149.6504,52.2578 C153.3184,52.2578 156.9364,51.2758 160.5074,49.3088 C164.0784,47.3428 166.8884,44.6348 168.9394,41.1848 C170.9904,37.7348 172.0154,34.1888 172.0154,30.5458 C172.0154,25.3828 170.6334,20.6908 167.8714,16.4678 C165.1084,12.2468 161.5264,8.9418 157.1234,6.5528 C152.7214,4.1648 148.6504,2.9698 144.9104,2.9698 C139.6274,2.9698 134.8324,4.9608 130.5254,8.9418 C126.2184,12.9228 124.0654,17.8678 124.0654,23.7788 C124.0654,31.3298 126.6944,37.9638 131.9554,43.6818 C137.2134,49.3998 143.1124,52.2578 149.6504,52.2578 M149.8684,0.1478 C157.3474,0.1478 163.4634,2.4228 168.2154,6.9688 C172.9684,11.5168 175.3434,17.1918 175.3434,23.9958 C175.3434,32.7528 172.5934,40.1238 167.0924,46.1068 C161.5934,52.0898 154.2944,55.0808 145.1994,55.0808 C137.8174,55.0808 131.7744,52.6688 127.0694,47.8438 C122.3654,43.0178 120.0134,37.2288 120.0134,30.4728 C120.0134,25.9138 121.1464,21.2338 123.4144,16.4318 C125.6824,11.6318 129.0964,7.7168 133.6564,4.6898 C138.2164,1.6618 143.6204,0.1478 149.8684,0.1478" id="Fill-5" fill="#732826"></path>
            <path d="M227.082,27.6509 L197.807,27.6509 L197.807,48.1409 C197.807,50.0679 197.897,51.2969 198.078,51.8269 C198.258,52.3579 198.596,52.8029 199.091,53.1639 C199.585,53.5259 200.449,53.7049 201.679,53.7049 L201.679,54.2489 L187.891,54.2489 L187.891,53.7049 C190.399,53.8749 191.654,52.6579 191.654,50.0539 L191.654,7.1999 C191.654,4.7659 191.456,3.2229 191.058,2.5709 C190.66,1.9209 189.603,1.5589 187.891,1.4869 L187.891,0.9429 L201.679,0.9429 L201.679,1.4869 C200.159,1.5829 199.134,1.8729 198.603,2.3559 C198.072,2.8389 197.807,3.8269 197.807,5.3229 L197.807,26.1679 L227.082,26.1679 L227.082,7.0959 C227.082,4.9249 226.895,3.4469 226.521,2.6629 C226.147,1.8789 225.103,1.4869 223.392,1.4869 L223.392,0.9429 L236.998,0.9429 L236.998,1.4869 C235.923,1.4869 235.122,1.6139 234.596,1.8669 C234.07,2.1199 233.713,2.5109 233.521,3.0419 C233.33,3.5719 233.234,4.9219 233.234,7.0919 L233.234,47.9919 C233.234,50.0899 233.33,51.3979 233.521,51.9159 C233.713,52.4349 234.047,52.8619 234.525,53.1989 C235.003,53.5369 235.827,53.7049 236.998,53.7049 L236.998,54.2489 L223.392,54.2489 L223.392,53.7049 C224.863,53.7049 225.846,53.4039 226.341,52.8019 C226.835,52.1999 227.082,50.5739 227.082,47.9239 L227.082,27.6509 Z" id="Fill-7" fill="#732826"></path>
            <path d="M263.1201,28.2295 L277.5361,28.2295 L270.3341,10.0625 L263.1201,28.2295 Z M278.2521,29.7135 L262.6071,29.7135 L254.5381,49.8335 C253.9821,51.2815 253.7051,52.1735 253.7051,52.5115 C253.7051,53.3075 254.2971,53.7055 255.4791,53.7055 L255.4791,54.2495 L247.5551,54.2495 L247.5551,53.7055 C248.6151,53.7055 249.5071,53.4465 250.2281,52.9285 C250.9521,52.4095 251.7471,51.0625 252.6161,48.8905 L271.9361,0.1475 L272.8941,0.1475 L291.8991,47.2215 C291.8991,47.4635 292.3861,48.6055 293.3621,50.6455 C294.3361,52.6855 295.8211,53.7055 297.8191,53.7055 L297.8191,54.2495 L285.3701,54.2495 L285.3701,53.7055 C286.5041,53.7055 287.0711,53.2595 287.0711,52.3675 C287.0711,51.7645 286.7941,50.7985 286.2381,49.4715 C286.1431,49.3755 286.0571,49.2185 285.9861,49.0015 C285.9371,48.7605 285.9001,48.6395 285.8781,48.6395 L278.2521,29.7135 Z" id="Fill-9" fill="#732826"></path>
            <path d="M67.3618,80.6943 C67.3618,77.2783 65.9328,75.5703 63.0778,75.5703 C60.1598,75.5703 58.4408,77.3453 57.9178,80.8943 L67.3618,80.6943 Z M70.4068,80.6583 C70.4068,81.1683 70.3818,81.8733 70.3348,82.7723 L57.8088,82.9913 C57.9288,84.7653 58.6168,86.2523 59.8678,87.4493 C61.1208,88.6463 62.7788,89.2453 64.8458,89.2453 C66.6928,89.2453 68.4248,89.0193 70.0428,88.5703 L69.7328,91.1413 C68.5408,91.6153 66.8208,91.8513 64.5728,91.8513 C61.4128,91.8513 59.0028,90.9893 57.3438,89.2623 C55.6838,87.5383 54.8548,85.4343 54.8548,82.9553 C54.8548,80.3043 55.6118,78.0233 57.1248,76.1083 C58.6378,74.1943 60.6708,73.2373 63.2228,73.2373 C65.5688,73.2373 67.3518,73.9303 68.5738,75.3153 C69.7958,76.7013 70.4068,78.4813 70.4068,80.6583 L70.4068,80.6583 Z" id="Fill-11" fill="#717270"></path>
            <path d="M83.5122,91.3594 L80.0122,91.3594 C80.2322,87.3484 80.3412,82.8154 80.3412,77.7584 C80.3412,72.8474 80.1642,68.8314 79.8112,65.7074 L83.5122,65.5254 C83.2822,68.8314 83.1662,72.9094 83.1662,77.7584 C83.1662,82.7554 83.2822,87.2884 83.5122,91.3594" id="Fill-13" fill="#717270"></path>
            <path d="M106.7036,87.75 C106.7036,83.97 106.5996,80.33 106.3936,76.829 C105.4096,76.015 104.1816,75.607 102.7106,75.607 C100.6566,75.607 99.1186,76.291 98.0986,77.658 C97.0766,79.025 96.5666,80.742 96.5666,82.809 C96.5666,84.657 97.0496,86.212 98.0156,87.477 C98.9816,88.74 100.3226,89.372 102.0356,89.372 C104.1876,89.372 105.7426,88.832 106.7036,87.75 M109.6376,91.342 L106.9226,91.433 C106.8236,90.91 106.7756,90.356 106.7756,89.774 L106.5746,89.774 C105.2986,91.159 103.4036,91.852 100.8876,91.852 C98.5786,91.852 96.7396,91.014 95.3716,89.336 C94.0046,87.659 93.3206,85.635 93.3206,83.265 C93.3206,80.578 94.0806,78.264 95.5996,76.318 C97.1196,74.374 99.2586,73.401 102.0166,73.401 C103.9866,73.401 105.3966,73.803 106.2466,74.604 L106.3936,74.604 C106.3936,71.59 106.3076,68.631 106.1386,65.726 L109.6016,65.598 C109.3706,68.686 109.2556,72.727 109.2556,77.723 C109.2556,82.804 109.3836,87.343 109.6376,91.342" id="Fill-15" fill="#717270"></path>
            <path d="M131.7524,80.6943 C131.7524,77.2783 130.3234,75.5703 127.4684,75.5703 C124.5504,75.5703 122.8314,77.3453 122.3084,80.8943 L131.7524,80.6943 Z M134.7974,80.6583 C134.7974,81.1683 134.7724,81.8733 134.7244,82.7723 L122.1994,82.9913 C122.3194,84.7653 123.0074,86.2523 124.2584,87.4493 C125.5114,88.6463 127.1694,89.2453 129.2364,89.2453 C131.0834,89.2453 132.8154,89.0193 134.4334,88.5703 L134.1234,91.1413 C132.9314,91.6153 131.2114,91.8513 128.9634,91.8513 C125.8034,91.8513 123.3934,90.9893 121.7344,89.2623 C120.0744,87.5383 119.2454,85.4343 119.2454,82.9553 C119.2454,80.3043 120.0024,78.0233 121.5154,76.1083 C123.0284,74.1943 125.0614,73.2373 127.6134,73.2373 C129.9594,73.2373 131.7424,73.9303 132.9644,75.3153 C134.1854,76.7013 134.7974,78.4813 134.7974,80.6583 L134.7974,80.6583 Z" id="Fill-17" fill="#717270"></path>
            <path d="M155.3984,74.0391 L154.5784,76.9371 C153.6294,76.5621 152.7504,76.3731 151.9354,76.3731 C149.6484,76.3731 148.1664,77.4611 147.4854,79.6371 C147.4854,85.2281 147.5224,89.1351 147.5944,91.3591 L144.3684,91.3591 C144.5634,87.5071 144.6604,84.5171 144.6604,82.3901 C144.6604,79.5091 144.3734,76.7501 143.8034,74.1121 L146.9934,73.6561 C147.2234,74.9931 147.3404,75.8871 147.3404,76.3371 L147.4854,76.3371 C148.7974,74.4041 150.3294,73.4371 152.0804,73.4371 C153.0024,73.4371 154.1094,73.6391 155.3984,74.0391" id="Fill-19" fill="#717270"></path>
            <path d="M176.2539,88.5703 L176.0719,91.0133 C175.0889,91.5723 173.7679,91.8513 172.1159,91.8513 C168.9679,91.8513 166.5609,90.9833 164.8959,89.2453 C163.2309,87.5073 162.3989,85.4103 162.3989,82.9553 C162.3989,80.3533 163.2739,78.1173 165.0249,76.2453 C166.7739,74.3743 169.0899,73.4373 171.9699,73.4373 C173.4169,73.4373 174.5959,73.5833 175.5069,73.8753 L175.0149,76.7373 C173.7379,76.2633 172.4439,76.0263 171.1319,76.0263 C169.4039,76.0263 168.0309,76.6283 167.0109,77.8313 C165.9899,79.0353 165.4799,80.5423 165.4799,82.3533 C165.4799,84.3223 166.0879,85.9643 167.3029,87.2753 C168.5179,88.5893 170.2379,89.2453 172.4619,89.2453 C173.3739,89.2453 174.6389,89.0193 176.2539,88.5703" id="Fill-21" fill="#717270"></path>
            <path d="M195.7061,87.8232 C195.6451,85.9742 195.6151,84.3162 195.6151,82.8452 C193.3311,82.8452 191.5921,83.0152 190.4011,83.3562 C188.4061,83.9642 187.4111,85.1242 187.4111,86.8382 C187.4111,88.4912 188.5781,89.3182 190.9111,89.3182 C192.9171,89.3182 194.5161,88.8192 195.7061,87.8232 M198.9341,91.3592 L196.0701,91.4692 C195.9261,90.8732 195.8521,90.3082 195.8521,89.7742 L195.6701,89.7742 C194.1751,91.1352 192.1391,91.8152 189.5621,91.8152 C188.1641,91.8152 186.9611,91.4052 185.9521,90.5852 C184.9431,89.7642 184.4381,88.5942 184.4381,87.0752 C184.4381,85.2032 185.2281,83.6992 186.8101,82.5622 C188.3891,81.4272 191.3241,80.8282 195.6151,80.7672 C195.6511,80.4752 195.6701,80.1402 195.6701,79.7642 C195.6701,78.2692 195.2711,77.2722 194.4771,76.7732 C193.6811,76.2762 192.4741,76.0262 190.8561,76.0262 C188.9491,76.0262 187.0691,76.2632 185.2241,76.7372 L185.5331,74.2212 C187.3561,73.6992 189.4531,73.4372 191.8221,73.4372 C193.9871,73.4372 195.6581,73.8842 196.8371,74.7772 C198.0161,75.6712 198.6051,77.1932 198.6051,79.3442 C198.6051,79.9172 198.5781,80.9532 198.5231,82.4542 C198.4691,83.9552 198.4411,84.9542 198.4411,85.4522 C198.4411,87.6652 198.6051,89.6342 198.9341,91.3592" id="Fill-23" fill="#717270"></path>
            <path d="M219.9521,74.0391 L219.1321,76.9371 C218.1831,76.5621 217.3041,76.3731 216.4891,76.3731 C214.2021,76.3731 212.7211,77.4611 212.0401,79.6371 C212.0401,85.2281 212.0761,89.1351 212.1481,91.3591 L208.9221,91.3591 C209.1171,87.5071 209.2141,84.5171 209.2141,82.3901 C209.2141,79.5091 208.9271,76.7501 208.3561,74.1121 L211.5471,73.6561 C211.7771,74.9931 211.8941,75.8871 211.8941,76.3371 L212.0401,76.3371 C213.3511,74.4041 214.8831,73.4371 216.6341,73.4371 C217.5571,73.4371 218.6631,73.6391 219.9521,74.0391" id="Fill-25" fill="#717270"></path>
            <path d="M239.459,80.6943 C239.459,77.2783 238.03,75.5703 235.175,75.5703 C232.257,75.5703 230.537,77.3453 230.015,80.8943 L239.459,80.6943 Z M242.504,80.6583 C242.504,81.1683 242.48,81.8733 242.432,82.7723 L229.906,82.9913 C230.026,84.7653 230.714,86.2523 231.965,87.4493 C233.218,88.6463 234.876,89.2453 236.943,89.2453 C238.79,89.2453 240.522,89.0193 242.14,88.5703 L241.83,91.1413 C240.638,91.6153 238.918,91.8513 236.67,91.8513 C233.51,91.8513 231.1,90.9893 229.441,89.2623 C227.781,87.5383 226.952,85.4343 226.952,82.9553 C226.952,80.3043 227.709,78.0233 229.222,76.1083 C230.735,74.1943 232.768,73.2373 235.319,73.2373 C237.666,73.2373 239.449,73.9303 240.671,75.3153 C241.893,76.7013 242.504,78.4813 242.504,80.6583 L242.504,80.6583 Z" id="Fill-27" fill="#717270"></path>
        </g>
    </g>
</svg>